<?xml version="1.0" encoding="UTF-8"?>
<svg width="123px" height="136px" viewBox="0 0 123 136" version="1.1" xmlns="http://www.w3.org/2000/svg" xmlns:xlink="http://www.w3.org/1999/xlink">
    <!-- Generator: Sketch 51.3 (57544) - http://www.bohemiancoding.com/sketch -->
    <title>Z-logo</title>
    <desc>Created with Sketch.</desc>
    <defs></defs>
    <g id="Page-1" stroke="none" stroke-width="1" fill="none" fill-rule="evenodd">
        <g id="Desktop-HD" transform="translate(-671.000000, -292.000000)">
            <g id="Z-logo" transform="translate(671.000000, 292.000000)">
                <rect id="Rectangle-2" stroke="#F7A520" stroke-width="3" fill="#000000" x="1.5" y="1.5" width="120" height="122" rx="14"></rect>
                <g id="Group" transform="translate(32.000000, 20.000000)">
                    <path d="M53.3883408,78 L0,78 L0,76.3329016 L18.1811659,34.5544041 C19.520485,32.0284848 20.6002949,29.957262 21.4206278,28.3406736 C22.2409608,26.7240852 22.8352747,25.5790189 23.2035874,24.9054404 C23.839764,23.5919623 25.1455806,21.4028651 27.1210762,18.3380829 L4.6206278,18.3380829 L4.6206278,0 L56,0 L56,2.17227979 L36.9147982,44.6580311 C35.675928,47.386024 34.4370764,50.0297799 33.1982063,52.5893782 C31.9593361,55.1489765 30.7204845,57.6916972 29.4816143,60.2176166 C31.6914909,60.049222 33.424209,59.9229279 34.6798206,59.8387306 C35.9354323,59.7545333 36.7641236,59.7124352 37.1659193,59.7124352 L53.3883408,59.257772 L53.3883408,78 Z M50.4966669,76.1428571 C51.1599043,76.1428571 51.6974589,76.0596717 51.6974589,75.9571478 L51.6974589,74.4714236 C51.6974589,74.3688502 51.1599043,74.2857143 50.4966669,74.2857143 L24.2800147,74.2857143 C23.6167773,74.2857143 23.0792227,74.3688502 23.0792227,74.4714236 L23.0792227,75.9571478 C23.0792227,76.0596717 23.6167773,76.1428571 24.2800147,76.1428571 L50.4966669,76.1428571 Z" id="Combined-Shape" fill="#FFCF2C"></path>
                    <g id="roller" transform="translate(32.000000, 68.000000)">
                        <path d="M4.76998413,27.6923077 C3.84374274,27.6923077 3.09302326,26.9630655 3.09302326,26.0633229 L3.09302326,23.7229061 C3.09302326,21.002067 4.98620029,18.6247265 7.69728704,17.9413131 L26.3901463,13.22866 C27.1294625,13.0425213 27.6460782,12.3938596 27.6460782,11.6519113 L27.6460782,3.25796966 L23.3964358,3.25796966 C22.4701944,3.25796966 21.7194749,2.52872745 21.7194749,1.62898483 C21.7194749,0.729676604 22.4701944,0 23.3964358,0 L29.3230391,0 C30.2488333,0 31,0.729676604 31,1.62898483 L31,11.6519113 C31,13.8777562 29.4510471,15.822764 27.2329869,16.3823746 L8.53968039,21.0949191 C7.30767313,21.4054036 6.44694501,22.486398 6.44694501,23.7229061 L6.44694501,26.0633229 C6.44694501,26.9630655 5.69622552,27.6923077 4.76998413,27.6923077 Z" id="Fill-1" fill="#D6D3C5"></path>
                        <path d="M29.3863687,0 L23.6835804,0 C22.7923181,0 22.0699491,0.72984261 22.0699491,1.62935543 C22.0699491,2.52930275 22.7923181,3.25871087 23.6835804,3.25871087 L27.7727374,3.25871087 L27.7727374,11.6545622 C27.7727374,12.3966793 27.2756313,13.0450541 26.5642351,13.2316696 L8.5773019,17.9453949 C7.53005518,18.2194525 6.61028533,18.7676762 5.88372093,19.5008862 L5.88372093,27.6923077 C6.71700014,27.6286542 7.37417839,26.927271 7.37417839,26.0692524 L7.37417839,23.7278687 C7.37417839,22.4910793 8.20240156,21.4102735 9.3878827,21.0992839 L27.3752462,16.3856672 C29.5095425,15.8263638 31,13.8809134 31,11.6541277 L31,1.62935543 C31,0.72984261 30.277631,0 29.3863687,0 Z" id="Fill-2" fill="#C4C0AD"></path>
                        <path d="M9.79069767,48 L1.97674419,48 C1.05190698,48 0.302325581,47.2900566 0.302325581,46.4141249 L0.302325581,25.5858751 C0.302325581,24.7103663 1.05190698,24 1.97674419,24 L9.79069767,24 C10.7155349,24 11.4651163,24.7103663 11.4651163,25.5858751 L11.4651163,46.4141249 C11.4651163,47.2900566 10.7155349,48 9.79069767,48 Z" id="Fill-5" fill="#FFCF2C"></path>
                        <path d="M9.79083162,24 L5.88372093,24 L5.88372093,48 L9.79083162,48 C10.7155948,48 11.4651163,47.2900566 11.4651163,46.4141249 L11.4651163,25.5858751 C11.4651163,24.7103663 10.7155948,24 9.79083162,24 Z" id="Fill-6" fill="#F7A520"></path>
                    </g>
                </g>
            </g>
        </g>
    </g>
</svg>